<?xml version="1.0" standalone="no"?>
<!DOCTYPE svg PUBLIC "-//W3C//DTD SVG 20010904//EN"
 "http://www.w3.org/TR/2001/REC-SVG-20010904/DTD/svg10.dtd">
<svg version="1.0" xmlns="http://www.w3.org/2000/svg"
 width="430.000000pt" height="430.000000pt" viewBox="0 0 430.000000 430.000000"
 preserveAspectRatio="xMidYMid meet">
<metadata>
Created by potrace 1.13, written by Peter Selinger 2001-2015
</metadata>
<g transform="translate(0.000000,430.000000) scale(0.100000,-0.100000)"
fill="#000000" stroke="none">
<path d="M300 3650 l0 -350 350 0 350 0 0 350 0 350 -350 0 -350 0 0 -350z
m600 0 l0 -250 -250 0 -250 0 0 250 0 250 250 0 250 0 0 -250z"/>
<path d="M500 3650 l0 -150 150 0 150 0 0 150 0 150 -150 0 -150 0 0 -150z"/>
<path d="M1100 3900 l0 -100 100 0 100 0 0 50 0 50 50 0 50 0 0 -100 0 -100
50 0 50 0 0 -50 0 -50 -150 0 -150 0 0 50 0 50 -50 0 -50 0 0 -200 0 -200 50
0 50 0 0 50 0 50 50 0 50 0 0 -100 0 -100 50 0 50 0 0 -50 0 -50 -100 0 -100
0 0 -50 0 -50 -50 0 -50 0 0 -50 0 -50 -50 0 -50 0 0 50 0 50 -350 0 -350 0 0
-300 0 -300 50 0 50 0 0 -50 0 -50 -50 0 -50 0 0 -50 0 -50 50 0 50 0 0 -50 0
-50 50 0 50 0 0 -50 0 -50 -100 0 -100 0 0 -100 0 -100 50 0 50 0 0 -50 0 -50
-50 0 -50 0 0 -50 0 -50 50 0 50 0 0 -100 0 -100 -50 0 -50 0 0 -50 0 -50 50
0 50 0 0 -50 0 -50 -50 0 -50 0 0 -50 0 -50 150 0 150 0 0 50 0 50 50 0 50 0
0 -50 0 -50 50 0 50 0 0 50 0 50 50 0 50 0 0 -50 0 -50 50 0 50 0 0 50 0 50
100 0 100 0 0 50 0 50 50 0 50 0 0 -50 0 -50 50 0 50 0 0 -50 0 -50 -50 0 -50
0 0 -100 0 -100 50 0 50 0 0 -100 0 -100 -50 0 -50 0 0 -100 0 -100 -50 0 -50
0 0 -100 0 -100 100 0 100 0 0 200 0 200 50 0 50 0 0 -50 0 -50 100 0 100 0 0
100 0 100 -50 0 -50 0 0 50 0 50 50 0 50 0 0 100 0 100 -50 0 -50 0 0 100 0
100 50 0 50 0 0 -50 0 -50 100 0 100 0 0 50 0 50 50 0 50 0 0 -50 0 -50 50 0
50 0 0 -100 0 -100 -100 0 -100 0 0 50 0 50 -50 0 -50 0 0 -50 0 -50 50 0 50
0 0 -50 0 -50 50 0 50 0 0 -50 0 -50 -100 0 -100 0 0 -50 0 -50 100 0 100 0 0
-50 0 -50 -50 0 -50 0 0 -100 0 -100 -50 0 -50 0 0 -50 0 -50 50 0 50 0 0 50
0 50 50 0 50 0 0 -50 0 -50 50 0 50 0 0 50 0 50 100 0 100 0 0 -50 0 -50 150
0 150 0 0 50 0 50 50 0 50 0 0 50 0 50 -50 0 -50 0 0 50 0 50 50 0 50 0 0 50
0 50 50 0 50 0 0 -200 0 -200 100 0 100 0 0 50 0 50 50 0 50 0 0 -50 0 -50
250 0 250 0 0 50 0 50 50 0 50 0 0 50 0 50 50 0 50 0 0 50 0 50 50 0 50 0 0
-50 0 -50 50 0 50 0 0 100 0 100 -50 0 -50 0 0 50 0 50 -50 0 -50 0 0 50 0 50
100 0 100 0 0 100 0 100 -50 0 -50 0 0 50 0 50 50 0 50 0 0 300 0 300 -100 0
-100 0 0 50 0 50 50 0 50 0 0 50 0 50 50 0 50 0 0 150 0 150 -50 0 -50 0 0
-50 0 -50 -50 0 -50 0 0 100 0 100 50 0 50 0 0 50 0 50 50 0 50 0 0 350 0 350
-100 0 -100 0 0 -50 0 -50 -50 0 -50 0 0 50 0 50 -150 0 -150 0 0 -50 0 -50
150 0 150 0 0 -50 0 -50 -200 0 -200 0 0 -50 0 -50 100 0 100 0 0 -50 0 -50
-100 0 -100 0 0 -100 0 -100 -50 0 -50 0 0 50 0 50 -50 0 -50 0 0 100 0 100
50 0 50 0 0 100 0 100 -50 0 -50 0 0 50 0 50 -50 0 -50 0 0 100 0 100 50 0 50
0 0 -50 0 -50 50 0 50 0 0 250 0 250 -50 0 -50 0 0 100 0 100 -100 0 -100 0 0
-150 0 -150 -50 0 -50 0 0 -50 0 -50 -100 0 -100 0 0 100 0 100 100 0 100 0 0
50 0 50 -100 0 -100 0 0 -50 0 -50 -50 0 -50 0 0 -100 0 -100 -50 0 -50 0 0
-50 0 -50 -150 0 -150 0 0 50 0 50 -100 0 -100 0 0 -50 0 -50 -50 0 -50 0 0
100 0 100 -50 0 -50 0 0 -100 0 -100 -50 0 -50 0 0 -50 0 -50 -50 0 -50 0 0
100 0 100 50 0 50 0 0 100 0 100 -50 0 -50 0 0 50 0 50 100 0 100 0 0 -50 0
-50 50 0 50 0 0 50 0 50 -50 0 -50 0 0 50 0 50 -100 0 -100 0 0 -50 0 -50 -50
0 -50 0 0 50 0 50 -150 0 -150 0 0 -100z m300 -450 l0 -50 50 0 50 0 0 -50 0
-50 50 0 50 0 0 50 0 50 50 0 50 0 0 50 0 50 50 0 50 0 0 -50 0 -50 50 0 50 0
0 50 0 50 50 0 50 0 0 -50 0 -50 50 0 50 0 0 -50 0 -50 -50 0 -50 0 0 50 0 50
-50 0 -50 0 0 -50 0 -50 -50 0 -50 0 0 50 0 50 -50 0 -50 0 0 -200 0 -200 50
0 50 0 0 100 0 100 100 0 100 0 0 -50 0 -50 100 0 100 0 0 -50 0 -50 50 0 50
0 0 -50 0 -50 50 0 50 0 0 50 0 50 100 0 100 0 0 100 0 100 -50 0 -50 0 0 50
0 50 -50 0 -50 0 0 100 0 100 50 0 50 0 0 -100 0 -100 50 0 50 0 0 100 0 100
200 0 200 0 0 -50 0 -50 -50 0 -50 0 0 -100 0 -100 50 0 50 0 0 -50 0 -50 50
0 50 0 0 -100 0 -100 -50 0 -50 0 0 -100 0 -100 50 0 50 0 0 -50 0 -50 50 0
50 0 0 -50 0 -50 100 0 100 0 0 50 0 50 50 0 50 0 0 100 0 100 50 0 50 0 0 50
0 50 100 0 100 0 0 50 0 50 50 0 50 0 0 -150 0 -150 -50 0 -50 0 0 -50 0 -50
50 0 50 0 0 -50 0 -50 -50 0 -50 0 0 -50 0 -50 -100 0 -100 0 0 -50 0 -50 -50
0 -50 0 0 -50 0 -50 50 0 50 0 0 -50 0 -50 50 0 50 0 0 -50 0 -50 50 0 50 0 0
50 0 50 50 0 50 0 0 -50 0 -50 -50 0 -50 0 0 -50 0 -50 -50 0 -50 0 0 -50 0
-50 -150 0 -150 0 0 -50 0 -50 50 0 50 0 0 -50 0 -50 50 0 50 0 0 50 0 50 100
0 100 0 0 -50 0 -50 50 0 50 0 0 -200 0 -200 -200 0 -200 0 0 50 0 50 -100 0
-100 0 0 100 0 100 50 0 50 0 0 50 0 50 -50 0 -50 0 0 50 0 50 -50 0 -50 0 0
50 0 50 -50 0 -50 0 0 -100 0 -100 50 0 50 0 0 -50 0 -50 -50 0 -50 0 0 -50 0
-50 50 0 50 0 0 -100 0 -100 -50 0 -50 0 0 -300 0 -300 100 0 100 0 0 50 0 50
50 0 50 0 0 -50 0 -50 50 0 50 0 0 50 0 50 100 0 100 0 0 50 0 50 -50 0 -50 0
0 150 0 150 100 0 100 0 0 -50 0 -50 -50 0 -50 0 0 -100 0 -100 50 0 50 0 0
-50 0 -50 -50 0 -50 0 0 -100 0 -100 -50 0 -50 0 0 50 0 50 -50 0 -50 0 0
-100 0 -100 -150 0 -150 0 0 50 0 50 -50 0 -50 0 0 50 0 50 -50 0 -50 0 0
-100 0 -100 -50 0 -50 0 0 200 0 200 -100 0 -100 0 0 -50 0 -50 -50 0 -50 0 0
-50 0 -50 -50 0 -50 0 0 -100 0 -100 -50 0 -50 0 0 50 0 50 -200 0 -200 0 0
50 0 50 250 0 250 0 0 50 0 50 -50 0 -50 0 0 50 0 50 -100 0 -100 0 0 50 0 50
50 0 50 0 0 50 0 50 -50 0 -50 0 0 100 0 100 50 0 50 0 0 50 0 50 50 0 50 0 0
50 0 50 -100 0 -100 0 0 50 0 50 -50 0 -50 0 0 -50 0 -50 -100 0 -100 0 0 -50
0 -50 -50 0 -50 0 0 50 0 50 -50 0 -50 0 0 100 0 100 50 0 50 0 0 -50 0 -50
50 0 50 0 0 50 0 50 50 0 50 0 0 50 0 50 50 0 50 0 0 -50 0 -50 50 0 50 0 0
50 0 50 51 0 c49 0 50 1 47 26 -3 23 -10 29 -58 41 -30 7 -74 27 -97 43 -40
27 -43 28 -43 10 0 -19 -7 -20 -100 -20 l-100 0 0 50 0 50 53 1 52 1 -50 12
c-39 10 -51 10 -53 0 -3 -12 -49 -23 -111 -27 -46 -3 -59 19 -45 73 11 40 11
40 -17 40 l-29 0 0 -100 0 -100 -150 0 -150 0 0 -100 0 -100 50 0 50 0 0 50 0
50 50 0 50 0 0 -100 0 -100 -100 0 -100 0 0 -50 0 -50 50 0 50 0 0 -100 0
-100 -50 0 -50 0 0 50 0 50 -50 0 -50 0 0 50 0 50 -100 0 -100 0 0 -50 0 -50
-50 0 -50 0 0 -50 0 -50 -50 0 -50 0 0 50 0 50 -50 0 -50 0 0 -50 0 -50 -50 0
-50 0 0 100 0 100 -50 0 -50 0 0 50 0 50 -50 0 -50 0 0 250 0 250 50 0 50 0 0
-50 0 -50 100 0 100 0 0 50 0 50 -50 0 -50 0 0 50 0 50 -50 0 -50 0 0 50 0 50
-50 0 -50 0 0 100 0 100 -50 0 -50 0 0 150 0 150 50 0 50 0 0 -100 0 -100 50
0 50 0 0 -100 0 -100 50 0 50 0 0 -100 0 -100 50 0 50 0 0 50 0 50 50 0 50 0
0 50 0 50 50 0 50 0 0 50 0 50 -150 0 -150 0 0 50 0 50 250 0 250 0 0 50 0 50
-150 0 -150 0 0 50 0 50 -50 0 -50 0 0 -50 0 -50 -100 0 -100 0 0 50 0 50 100
0 100 0 0 50 0 50 -150 0 -150 0 0 50 0 50 250 0 250 0 0 -50 0 -50 -50 0 -50
0 0 -50 0 -50 150 0 150 0 0 100 0 100 50 0 50 0 0 50 0 50 50 0 50 0 0 50 0
50 100 0 100 0 0 50 0 50 -50 0 -50 0 0 50 0 50 -50 0 -50 0 0 50 0 50 -50 0
-50 0 0 50 0 50 50 0 50 0 0 -50z m-900 -2100 l0 -50 50 0 50 0 0 -50 0 -50
-50 0 -50 0 0 50 0 50 -50 0 -50 0 0 50 0 50 50 0 50 0 0 -50z m1000 -300 l0
-50 50 0 50 0 0 -50 0 -50 -100 0 -100 0 0 100 0 100 50 0 50 0 0 -50z m2000
-100 l0 -150 -150 0 -150 0 0 150 0 150 150 0 150 0 0 -150z"/>
<path d="M2700 3350 l0 -50 -50 0 -50 0 0 -50 0 -50 100 0 100 0 0 -50 0 -50
-50 0 -50 0 0 -100 0 -100 50 0 50 0 0 -150 0 -150 -50 0 -50 0 0 100 0 100
-50 0 -50 0 0 50 0 50 -50 0 -50 0 0 -100 0 -100 50 0 50 0 0 -50 0 -50 -150
0 -150 0 0 50 0 50 50 0 50 0 0 50 0 50 -50 0 -50 0 0 -50 0 -50 -50 0 -50 0
0 50 0 50 -50 0 -50 0 0 -50 0 -50 -50 0 -50 0 0 50 0 50 -50 0 -50 0 0 -50 0
-50 -100 0 -100 0 0 50 0 50 50 0 50 0 0 50 0 50 -50 0 -50 0 0 -50 0 -50
-100 0 -100 0 0 -50 0 -50 -50 0 -50 0 0 100 0 100 -50 0 -50 0 0 -100 0 -100
-50 0 -50 0 0 -50 0 -50 50 0 50 0 0 -100 0 -100 50 0 50 0 0 100 0 100 50 0
50 0 0 -100 0 -100 50 0 50 0 0 100 0 100 100 0 100 0 0 -34 0 -34 40 19 c21
10 44 19 50 19 5 0 10 7 10 16 0 15 10 16 81 10 110 -9 175 -24 234 -53 69
-34 140 -106 166 -169 18 -44 27 -53 53 -57 17 -3 39 -8 49 -12 15 -6 17 -1
17 44 l0 51 50 0 50 0 0 -50 0 -50 50 0 50 0 0 -50 0 -50 50 0 50 0 0 100 0
100 100 0 100 0 0 -50 0 -50 -50 0 -50 0 0 -50 0 -50 50 0 50 0 0 50 0 50 50
0 50 0 0 -100 0 -100 50 0 50 0 0 -50 0 -50 -150 0 -150 0 0 -50 0 -50 -100 0
-100 0 0 -100 0 -100 50 0 50 0 0 -50 0 -50 -150 0 -150 0 0 50 0 50 50 0 50
0 -1 53 c-1 33 -4 41 -6 22 -3 -16 -9 -36 -15 -42 -15 -19 -59 -16 -93 7 -16
11 -42 20 -57 20 -24 0 -28 -4 -28 -30 0 -29 -1 -30 -50 -30 l-50 0 0 -50 0
-50 100 0 100 0 0 -50 0 -50 -50 0 -50 0 0 -50 0 -50 50 0 50 0 0 -50 0 -50
50 0 50 0 0 50 0 50 50 0 50 0 0 -100 0 -100 -100 0 -100 0 0 -50 0 -50 -50 0
-50 0 0 50 0 50 -50 0 -50 0 0 -50 0 -50 50 0 50 0 0 -50 0 -50 150 0 150 0 0
-50 0 -50 -150 0 -150 0 0 -50 0 -50 150 0 150 0 0 50 0 50 50 0 50 0 0 100 0
100 -50 0 -50 0 0 50 0 50 200 0 200 0 0 50 0 50 -50 0 -50 0 0 50 0 50 -50 0
-50 0 0 -50 0 -50 -50 0 -50 0 0 150 0 150 100 0 100 0 0 -50 0 -50 50 0 50 0
0 50 0 50 -50 0 -50 0 0 50 0 50 -50 0 -50 0 0 100 0 100 200 0 200 0 0 -50 0
-50 50 0 50 0 0 50 0 50 100 0 100 0 0 100 0 100 -100 0 -100 0 0 150 0 150
-100 0 -100 0 0 -50 0 -50 -50 0 -50 0 0 100 0 100 -50 0 -50 0 0 50 0 50 -50
0 -50 0 0 150 0 150 -50 0 -50 0 0 50 0 50 100 0 100 0 0 50 0 50 -50 0 -50 0
0 50 0 50 -50 0 -50 0 0 100 0 100 -50 0 -50 0 0 -50z m0 -800 l0 -50 50 0 50
0 0 -50 0 -50 -50 0 -50 0 0 50 0 50 -50 0 -50 0 0 50 0 50 50 0 50 0 0 -50z"/>
<path d="M1900 2950 l0 -50 150 0 150 0 0 50 0 50 -150 0 -150 0 0 -50z"/>
<path d="M3700 2750 l0 -50 -50 0 -50 0 0 -50 0 -50 -50 0 -50 0 0 -50 0 -50
50 0 50 0 0 50 0 50 50 0 50 0 0 -50 0 -50 50 0 50 0 0 50 0 50 -50 0 -50 0 0
50 0 50 50 0 50 0 0 50 0 50 -50 0 -50 0 0 -50z"/>
<path d="M1400 2250 l0 -50 -100 0 -100 0 0 -100 0 -100 50 0 50 0 0 50 0 50
50 0 50 0 0 -50 0 -50 50 0 50 0 0 150 0 150 -50 0 -50 0 0 -50z"/>
<path d="M900 2150 l0 -50 100 0 100 0 0 50 0 50 -100 0 -100 0 0 -50z"/>
<path d="M900 1950 l0 -50 -50 0 -50 0 0 -100 0 -100 -50 0 -50 0 0 50 0 50
-50 0 -50 0 0 -100 0 -100 150 0 150 0 0 -50 0 -50 50 0 50 0 0 -50 0 -50 -50
0 -50 0 0 -50 0 -50 50 0 50 0 0 50 0 50 50 0 50 0 0 50 0 50 50 0 50 0 0 150
0 150 50 0 50 0 0 50 0 50 -100 0 -100 0 0 50 0 50 -100 0 -100 0 0 -50z m200
-150 l0 -100 -50 0 -50 0 0 -50 0 -50 -50 0 -50 0 0 50 0 50 50 0 50 0 0 50 0
50 -50 0 -50 0 0 50 0 50 100 0 100 0 0 -100z"/>
<path d="M3400 1450 l0 -50 50 0 50 0 0 -50 0 -50 50 0 50 0 0 50 0 50 -50 0
-50 0 0 50 0 50 -50 0 -50 0 0 -50z"/>
<path d="M1900 3950 l0 -50 50 0 50 0 0 -50 0 -50 -50 0 -50 0 0 -50 0 -50 50
0 50 0 0 50 0 50 50 0 50 0 0 -50 0 -50 50 0 50 0 0 -50 0 -50 50 0 50 0 0
100 0 100 50 0 50 0 0 50 0 50 50 0 50 0 0 50 0 50 -50 0 -50 0 0 -50 0 -50
-50 0 -50 0 0 50 0 50 -100 0 -100 0 0 -50 0 -50 -50 0 -50 0 0 50 0 50 -50 0
-50 0 0 -50z"/>
<path d="M3300 3650 l0 -350 350 0 350 0 0 350 0 350 -350 0 -350 0 0 -350z
m600 0 l0 -250 -250 0 -250 0 0 250 0 250 250 0 250 0 0 -250z"/>
<path d="M3500 3650 l0 -150 150 0 150 0 0 150 0 150 -150 0 -150 0 0 -150z"/>
<path d="M300 650 l0 -350 350 0 350 0 0 350 0 350 -350 0 -350 0 0 -350z
m600 0 l0 -250 -250 0 -250 0 0 250 0 250 250 0 250 0 0 -250z"/>
<path d="M500 650 l0 -150 150 0 150 0 0 150 0 150 -150 0 -150 0 0 -150z"/>
<path d="M1600 450 l0 -50 -50 0 -50 0 0 -50 0 -50 100 0 100 0 0 100 0 100
-50 0 -50 0 0 -50z"/>
<path d="M3800 350 l0 -50 100 0 100 0 0 50 0 50 -100 0 -100 0 0 -50z"/>
</g>
</svg>
